<?xml version="1.0" encoding="utf-8"?>
<!-- Generator: Adobe Illustrator 16.0.3, SVG Export Plug-In . SVG Version: 6.00 Build 0)  -->
<!DOCTYPE svg PUBLIC "-//W3C//DTD SVG 1.1//EN" "http://www.w3.org/Graphics/SVG/1.1/DTD/svg11.dtd">
<svg version="1.1" id="Vrstva_1" xmlns="http://www.w3.org/2000/svg" xmlns:xlink="http://www.w3.org/1999/xlink" x="0px" y="0px"
	 width="212.6px" height="184.25px" viewBox="0 0 212.6 184.25" enable-background="new 0 0 212.6 184.25" xml:space="preserve">
<path fill="#43A79E" d="M102.459,61.135c0,1.952-1.582,4.648-3.534,4.648c-1.953,0-3.536-1.583-3.536-3.535
	c0-1.954,1.583-3.537,3.536-3.537C100.877,58.711,102.459,59.183,102.459,61.135"/>
<path fill="#43A79E" d="M113.262,75.152c-1.442-0.847-2.748-3.185-1.902-4.629c0.847-1.443,2.704-1.927,4.146-1.079
	c1.443,0.845,1.926,2.702,1.08,4.145C115.739,75.032,114.704,75.998,113.262,75.152"/>
<path fill="#43A79E" d="M111.414,59.212c-0.919,1.423-3.465,2.563-5.039,1.546c-1.572-1.016-2.101-2.994-1.18-4.418
	c0.919-1.423,2.939-1.753,4.514-0.736C111.281,56.622,112.334,57.79,111.414,59.212"/>
<path fill="#43A79E" d="M109.392,76.542c-0.875,1.353-3.292,2.435-4.786,1.469c-1.494-0.966-1.997-2.845-1.122-4.197
	c0.873-1.351,2.793-1.665,4.288-0.699C109.266,74.082,110.267,75.19,109.392,76.542"/>
<path fill="#43A79E" d="M118.107,64.832c0,1.773-1.576,2.123-3.352,2.123c-1.773,0-3.212-1.438-3.212-3.212
	c0-1.775,2.472-2.716,4.246-2.716S118.107,63.058,118.107,64.832"/>
<path fill="#43A79E" d="M101.221,71.191c0.244,1.646-1.171,2.188-2.817,2.432c-1.646,0.244-3.18-0.893-3.425-2.539
	c-0.244-1.647,1.922-2.862,3.568-3.106C100.193,67.733,100.976,69.545,101.221,71.191"/>
<rect x="71.628" y="103.366" fill="#43A79E" width="1.959" height="9.592"/>
<polygon fill="#43A79E" points="86.194,112.958 81.796,106.956 81.796,112.958 79.836,112.958 79.836,103.366 81.563,103.366 
	86.002,109.382 86.002,103.366 87.962,103.366 87.962,112.958 "/>
<polygon fill="#43A79E" points="96.158,109.093 96.158,112.958 94.198,112.958 94.198,103.365 99.515,103.365 99.515,105.025 
	96.158,105.025 96.158,107.435 99.515,107.435 99.515,109.093 "/>
<rect x="105.203" y="103.366" fill="#43A79E" width="1.959" height="9.592"/>
<polygon fill="#43A79E" points="119.77,112.958 115.37,106.956 115.37,112.958 113.411,112.958 113.411,103.366 115.138,103.366 
	119.577,109.382 119.577,103.366 121.537,103.366 121.537,112.958 "/>
<rect x="127.773" y="103.366" fill="#43A79E" width="1.959" height="9.592"/>
<polygon fill="#43A79E" points="139.257,105.024 139.257,112.959 137.298,112.959 137.298,105.024 135.022,105.024 135.022,103.366 
	141.531,103.366 141.531,105.024 "/>
<polygon fill="#43A79E" points="67.152,129.403 65.754,129.403 62.959,122.375 62.959,129.403 61,129.403 61,119.812 
	63.892,119.812 66.467,126.498 69.14,119.812 71.976,119.812 71.976,129.403 70.017,129.403 70.017,122.401 "/>
<path fill="#43A79E" d="M80.774,126.019h2.288l-1.109-3.22h-0.015L80.774,126.019z M84.228,129.403l-0.617-1.78h-3.411l-0.645,1.78
	h-2.178l3.919-9.592h1.589l3.604,9.592H84.228z"/>
<polygon fill="#43A79E" points="96.904,124.497 100.453,129.403 97.877,129.403 95.562,126.128 93.246,129.403 90.779,129.403 
	94.313,124.579 90.889,119.811 93.465,119.811 95.671,122.962 97.904,119.811 100.356,119.811 "/>
<rect x="105.648" y="119.813" fill="#43A79E" width="1.959" height="9.592"/>
<polygon fill="#43A79E" points="120.009,129.403 118.611,129.403 115.816,122.375 115.816,129.403 113.856,129.403 113.856,119.812 
	116.748,119.812 119.324,126.498 121.996,119.812 124.833,119.812 124.833,129.403 122.873,129.403 122.873,122.401 "/>
<path fill="#43A79E" d="M138.77,124.882c0,3.015-1.15,4.687-3.892,4.687c-2.686,0-3.837-1.672-3.837-4.687v-5.069h1.96v5.329
	c0,1.836,0.74,2.714,1.905,2.714c1.164,0,1.904-0.878,1.904-2.714v-5.329h1.959V124.882z"/>
<path fill="#43A79E" d="M148.35,121.319c-0.658,0-1.247,0.328-1.247,0.959c0,0.737,0.904,0.944,1.644,1.205
	c1.357,0.467,2.987,1.096,2.987,3.11c0,2.082-1.959,2.974-3.631,2.974c-1.479,0-2.631-0.562-3.672-1.603l1.302-1.274
	c0.781,0.754,1.384,1.205,2.384,1.205c0.768,0,1.521-0.369,1.521-1.22c0-0.821-0.877-1.138-1.851-1.494
	c-1.246-0.467-2.645-1.012-2.645-2.848c0-1.824,1.549-2.687,3.139-2.687c1.233,0,2.206,0.397,3.179,1.137l-1.123,1.397
	C149.803,121.729,149.09,121.319,148.35,121.319"/>
</svg>
