<!DOCTYPE svg PUBLIC "-//W3C//DTD SVG 20010904//EN" "http://www.w3.org/TR/2001/REC-SVG-20010904/DTD/svg10.dtd">
<svg version="1.0" xmlns="http://www.w3.org/2000/svg" width="331px" height="184px" viewBox="0 0 3310 1840" preserveAspectRatio="xMidYMid meet">
<g id="layer101" fill="#020202" stroke="none">
 <path d="M0 920 l0 -920 1655 0 1655 0 0 920 0 920 -1655 0 -1655 0 0 -920z"/>
 </g>
<g id="layer102" fill="#fefefe" stroke="none">
 <path d="M0 920 l0 -920 1655 0 1655 0 0 920 0 920 -1655 0 -1655 0 0 -920z m2455 830 c122 -18 227 -49 330 -100 184 -90 294 -204 340 -353 50 -164 57 -279 30 -455 -30 -189 -127 -329 -317 -455 -172 -115 -304 -152 -516 -145 -121 4 -145 8 -205 32 -147 61 -268 161 -342 284 -1 1 -22 -7 -46 -18 -24 -11 -61 -20 -81 -20 -34 0 -38 3 -38 24 0 41 18 76 85 166 34 47 72 101 83 120 l21 35 -50 160 c-27 88 -51 175 -52 193 -2 38 3 42 163 116 52 24 104 50 114 58 18 14 16 17 -39 54 -109 72 -237 207 -221 233 9 14 212 57 351 74 66 8 324 6 390 -3z m-1891 -24 c20 -19 25 -38 31 -111 4 -48 5 -146 3 -219 -4 -108 -8 -138 -26 -172 -22 -43 -38 -54 -76 -54 -51 0 -76 75 -76 224 1 167 26 293 65 332 30 30 50 30 79 0z m331 -126 c-3 -63 -8 -186 -11 -272 -5 -122 -9 -158 -19 -158 -9 0 -16 18 -20 48 -8 61 -56 306 -61 311 -7 8 -10 -3 -38 -137 -14 -73 -34 -151 -43 -173 -32 -81 -38 -44 -38 232 0 223 2 264 14 264 13 0 15 -31 13 -200 -2 -122 1 -194 7 -185 14 24 51 194 51 236 0 53 10 84 26 84 7 0 16 -10 18 -22 22 -107 50 -226 57 -238 5 -9 9 60 9 166 0 99 3 184 7 188 4 4 13 -1 20 -11 10 -13 12 -47 8 -133z m439 129 c29 -13 41 -38 27 -52 -7 -7 -19 -4 -36 7 -41 27 -73 14 -98 -42 -20 -43 -22 -62 -20 -211 2 -146 4 -168 21 -190 15 -20 28 -26 53 -24 49 3 64 -4 49 -22 -21 -25 -96 -19 -124 9 -20 19 -25 38 -31 112 -9 107 -1 277 16 334 23 77 79 108 143 79z m-1064 -14 c20 -10 40 -38 67 -92 38 -77 38 -78 38 -198 -1 -100 -4 -128 -22 -167 -27 -59 -58 -80 -115 -76 l-43 3 1 40 c2 74 14 500 14 503 0 7 35 0 60 -13z m855 4 c8 -13 -26 -449 -41 -516 -11 -55 -42 -8 -67 102 -15 62 -77 395 -77 411 0 3 6 4 13 2 6 -3 19 -31 27 -64 14 -54 18 -59 40 -56 69 8 70 9 70 66 0 29 3 56 7 59 9 10 21 8 28 -4z m371 1 c15 0 24 -6 24 -15 0 -8 -9 -15 -19 -15 -11 0 -22 -3 -24 -7 -3 -5 -8 -111 -12 -236 -7 -227 -7 -228 14 -234 31 -8 26 -33 -6 -33 -43 0 -73 11 -73 26 0 8 7 14 15 14 12 0 15 14 15 63 0 34 3 140 7 235 6 172 6 172 -15 172 -12 0 -22 6 -22 14 0 15 34 26 58 20 8 -2 25 -4 38 -4z m-336 -666 c0 -29 -23 -23 -70 16 -28 23 -50 46 -50 52 0 5 27 -5 60 -23 33 -17 60 -38 60 -45z m380 0 c0 -29 -23 -23 -70 16 -28 23 -50 46 -50 52 0 5 27 -5 60 -23 33 -17 60 -38 60 -45z m-941 -250 c54 -68 48 -161 -19 -294 -49 -97 -60 -158 -36 -195 13 -20 22 -24 41 -19 18 4 25 2 25 -9 0 -15 -20 -27 -46 -27 -8 0 -26 11 -39 25 -21 20 -25 34 -25 81 0 47 8 75 47 158 39 85 47 111 47 163 1 79 -24 120 -73 115 -29 -3 -40 6 -24 21 3 4 23 7 44 7 29 0 42 -6 58 -26z m281 17 c0 -4 -23 -80 -51 -167 -28 -87 -53 -166 -55 -174 -3 -8 16 -60 40 -114 25 -54 43 -103 40 -108 -12 -19 -42 26 -80 119 l-39 97 -3 -91 c-2 -65 -7 -95 -17 -103 -8 -7 -15 -11 -16 -9 0 2 -2 127 -3 277 -2 245 -1 273 13 270 14 -3 16 -23 16 -133 0 -174 16 -218 48 -132 22 57 44 140 58 215 9 50 15 62 30 62 11 0 19 -4 19 -9z m-575 -21 c0 -10 -12 -16 -32 -18 l-33 -3 -1 -92 c-1 -51 -5 -166 -8 -257 -5 -137 -9 -165 -21 -165 -17 0 -17 -24 -7 314 4 129 7 236 7 238 0 2 21 3 48 1 34 -2 47 -7 47 -18z m131 10 c15 0 24 -6 24 -15 0 -8 -9 -15 -19 -15 -11 0 -22 -3 -24 -7 -3 -5 -8 -111 -12 -236 -7 -227 -7 -228 14 -234 31 -8 26 -33 -6 -33 -43 0 -73 11 -73 26 0 8 7 14 15 14 12 0 15 14 15 63 0 34 3 140 7 235 6 172 6 172 -15 172 -12 0 -22 6 -22 14 0 15 34 26 58 20 8 -2 25 -4 38 -4z m659 -1 c8 -13 -26 -449 -41 -516 -11 -55 -42 -8 -67 102 -15 62 -77 395 -77 411 0 3 6 4 13 2 6 -3 19 -31 27 -64 14 -54 18 -59 40 -56 69 8 70 9 70 66 0 29 3 56 7 59 9 10 21 8 28 -4z m-526 -691 c1 -44 -16 -33 -25 15 l-7 42 -14 -42 c-8 -24 -21 -43 -29 -43 -8 0 -14 4 -14 9 0 17 32 86 48 105 16 17 18 17 29 -20 6 -22 12 -51 12 -66z"/>
 <path d="M2080 1704 c-14 -3 -81 -12 -150 -20 -69 -9 -129 -21 -135 -26 -12 -11 61 -81 176 -169 l79 -60 31 16 c17 9 55 32 85 51 29 19 57 34 62 34 5 0 19 -12 33 -26 13 -15 71 -65 129 -111 73 -58 106 -79 108 -69 2 10 22 17 63 22 32 4 59 10 59 13 0 4 -22 32 -50 63 l-49 56 31 6 c17 3 47 6 68 6 21 0 51 3 68 6 l31 6 -39 58 c-22 32 -52 67 -67 78 -34 23 -107 47 -187 61 -56 10 -290 13 -346 5z"/>
 <path d="M2710 1610 c0 -7 20 -39 45 -72 25 -33 45 -63 45 -68 0 -10 -62 -20 -122 -20 -27 0 -48 -3 -48 -6 0 -3 15 -32 34 -64 l35 -59 -47 -6 c-76 -10 -101 -16 -107 -25 -3 -4 23 -31 57 -60 35 -28 71 -63 82 -76 18 -25 18 -25 -17 -78 -46 -70 -85 -146 -117 -231 l-26 -70 38 -110 c44 -130 59 -231 35 -240 -21 -9 -74 21 -191 104 -54 39 -102 71 -107 71 -10 0 -12 53 -3 63 10 9 34 -6 115 -73 40 -34 92 -75 116 -91 56 -39 56 -31 -3 143 l-47 136 32 94 c18 51 50 128 71 170 l38 77 -19 25 c-11 14 -70 67 -132 117 -62 51 -128 107 -148 126 -33 31 -37 32 -67 22 -25 -8 -40 -8 -61 1 -26 11 -43 4 -235 -97 l-207 -108 6 -35 c4 -19 28 -99 55 -178 l48 -143 -51 -67 c-65 -86 -107 -152 -107 -169 0 -23 31 -14 154 48 111 56 121 59 133 43 7 -10 13 -21 13 -25 0 -4 -40 -28 -90 -53 l-89 -47 30 -49 c113 -184 460 -301 680 -229 251 82 497 279 546 437 26 83 53 241 53 305 -1 164 -100 374 -227 480 -66 55 -193 112 -193 87z m-670 -404 c0 -16 -37 -46 -57 -46 -18 0 -16 20 4 42 19 22 53 24 53 4z m325 -16 c10 -11 15 -23 11 -27 -11 -11 -61 11 -64 30 -5 24 30 22 53 -3z"/>
 <path d="M502 1697 c-38 -45 -64 -300 -43 -412 20 -107 60 -113 95 -14 26 74 28 344 3 402 -16 38 -36 47 -55 24z"/>
 <path d="M236 1493 c-4 -109 -9 -215 -13 -235 -5 -35 -4 -38 20 -38 38 0 83 58 97 126 12 58 8 145 -10 214 -11 40 -65 130 -78 130 -5 0 -12 -89 -16 -197z"/>
 <path d="M1023 1573 c-13 -2 -23 -8 -23 -12 0 -43 55 -291 60 -271 6 23 27 277 23 283 -4 7 -22 7 -60 0z"/>
 <path d="M993 663 c-13 -2 -23 -8 -23 -12 0 -43 55 -291 60 -271 6 23 27 277 23 283 -4 7 -22 7 -60 0z"/>
 </g>

</svg>