<?xml version="1.0" encoding="UTF-8" standalone="no"?><!DOCTYPE svg PUBLIC "-//W3C//DTD SVG 1.1//EN" "http://www.w3.org/Graphics/SVG/1.1/DTD/svg11.dtd"><svg width="100%" height="100%" viewBox="0 0 409 458" version="1.1" xmlns="http://www.w3.org/2000/svg" xmlns:xlink="http://www.w3.org/1999/xlink" xml:space="preserve" xmlns:serif="http://www.serif.com/" style="fill-rule:evenodd;clip-rule:evenodd;stroke-linecap:round;stroke-linejoin:round;stroke-miterlimit:1.5;"><g id="logo"><g id="Layer3"><path d="M290.165,10.104c0,-0 -47.176,25.714 -39.363,49.386c7.813,23.672 41.342,8.447 34.627,2.728c-20.46,-17.425 4.736,-52.114 4.736,-52.114Z" style="fill:#fff;stroke:#fff;stroke-width:5px;"/><path d="M252.815,2.5c0,-0 -33.624,51.795 -6.753,62.794c26.871,10.998 49.93,-21.975 41.156,-22.877c-38.917,-3.998 -34.403,-39.917 -34.403,-39.917Z" style="fill:#fff;stroke:#fff;stroke-width:5px;"/></g><path d="M27.637,170.319c-0.053,1.118 0.55,7.828 15.608,38.143c14.29,28.769 39.073,32.648 88.158,29.083c40.519,-2.943 69.486,-24.725 65.853,-41.655c-3.487,-16.249 -27.974,-34.686 -21.575,-88.623c5.813,-49.001 56.195,-87.752 118.977,-74.355c56.135,11.978 50.988,92.667 59.131,93.95c5.383,0.848 41.743,10.67 50.66,19.455c4.571,4.503 -2.807,16.184 -14.3,21.989c-26.636,13.456 -43.514,6.931 -51.663,9.126c-23.802,6.413 -6.878,34.704 15.877,55.929c48.005,44.779 43.28,116.085 18.051,155.918c-25.285,39.922 -88.015,67.923 -156.586,65.673c-83.885,-2.753 -170.091,-5.943 -202.558,-80.303c-23.967,-54.892 -0.867,-124.093 2.013,-136.286c8.136,-34.447 12.021,-65.336 12.354,-68.044Zm-0,-0c0.006,-0.141 0.023,-0.193 0.023,-0.193c0,-0 -0.008,0.065 -0.023,0.193Zm104.039,146.571c-23.303,-4.229 -49.631,-61.368 -69.041,-16.213c-18.306,42.588 22.251,93.873 57.005,104.191c34.754,10.318 92.054,-33.928 90.546,-74.032c-1.583,-42.094 -53.226,-9.356 -78.51,-13.946Z" style="fill:#fff;stroke:#fff;stroke-width:5px;"/></g></svg>