<?xml version="1.0" encoding="UTF-8" standalone="no"?><!DOCTYPE svg PUBLIC "-//W3C//DTD SVG 1.1//EN" "http://www.w3.org/Graphics/SVG/1.1/DTD/svg11.dtd"><svg width="100%" height="100%" viewBox="0 0 5225 1642" version="1.1" xmlns="http://www.w3.org/2000/svg" xmlns:xlink="http://www.w3.org/1999/xlink" xml:space="preserve" xmlns:serif="http://www.serif.com/" style="fill-rule:evenodd;clip-rule:evenodd;stroke-linejoin:round;stroke-miterlimit:1.41421;"><g><path d="M1878.39,571.825c-54.812,-0.029 -65.479,-37.617 -79.387,-37.617c-8.813,0 -17.171,12.067 -17.171,21.346c0,19.954 38.5,52.434 98.417,52.434c59.008,0 101.675,-31.088 101.675,-97.467c0,-126.346 -152.783,-85.471 -152.783,-163.971c0,-35.767 28.808,-48.308 63.191,-48.308c40.421,0.021 53.888,17.645 64.546,17.645c10.663,0 16.687,-13.912 16.687,-21.337c0,-20.871 -48.245,-30.612 -81.233,-30.612c-46,0 -102.142,18.087 -102.142,86.324c0,112.871 152.784,70.6 152.784,163.963c0,38.554 -25.554,57.6 -64.584,57.6Z" style="fill-rule:nonzero;"/><path d="M2053.03,264.867c-9.287,0 -13.929,9.27 -13.929,17.616c0,9.738 5.108,18.546 13.929,18.546l75.233,0l0,289.313c0,9.287 9.738,13.929 19.475,13.929c9.738,0 19.475,-4.642 19.475,-13.929l0,-289.313l74.767,0c9.288,0 13.929,-9.275 13.929,-18.546c0,-8.808 -4.641,-17.616 -13.929,-17.616l-188.95,0Z" style="fill-rule:nonzero;"/><path d="M2457.97,505.879c0,45.046 -23.696,65.946 -62.721,65.946c-39.029,0 -62.258,-20.9 -62.258,-65.946l0,-227.546c0,-9.287 -9.738,-13.466 -19.475,-13.466c-9.738,0 -19.475,4.179 -19.475,13.466l0,227.546c0,73.825 44.062,101.179 101.208,101.179c57.146,0 101.671,-27.354 101.671,-101.179l0,-227.546c0,-9.287 -10.2,-13.466 -19.475,-13.466c-10.2,0 -19.475,4.179 -19.475,13.466l0,227.546Z" style="fill-rule:nonzero;"/><path d="M2579.15,264.867c-10.666,0 -17.621,6.487 -17.621,13.441l0,312.521c0,6.954 6.955,13.442 17.621,13.442l82.192,0c56.217,0 100.279,-27.35 100.279,-101.192l0,-137.021c0,-73.841 -44.062,-101.191 -100.279,-101.191l-82.192,0Zm82.192,35.233c38.1,0 61.329,20.904 61.329,65.958l0,137.021c0,45.059 -23.229,65.959 -61.329,65.959l-60.863,0l0,-268.938l60.863,0Z" style="fill-rule:nonzero;"/><path d="M2863.33,300.1l143.958,0c8.359,0 13.467,-8.346 13.467,-18.079c0,-8.346 -4.179,-17.154 -13.467,-17.154l-165.287,0c-8.813,0 -17.621,4.633 -17.621,13.908l0,311.587c0,9.275 8.808,13.909 17.621,13.909l165.287,0c9.288,0 13.467,-8.809 13.467,-17.154c0,-9.734 -5.108,-18.079 -13.467,-18.079l-143.958,0l0,-118.475l72.446,0c9.287,0 13.467,-8.346 13.467,-15.763c0,-8.808 -5.109,-16.688 -13.467,-16.688l-72.446,0l0,-118.012Z" style="fill-rule:nonzero;"/><path d="M3247.4,604.271c9.738,0 19.475,-4.642 19.475,-13.929l0,-312.013c0,-9.287 -9.737,-13.462 -19.475,-13.462c-9.737,0 -19.475,4.175 -19.475,13.462l0,237.263l-115.683,-226.121c-8.363,-16.25 -15.788,-24.604 -29.696,-24.604c-10.204,0 -19.475,3.712 -19.475,13.462l0,312.013c0,9.287 9.737,13.929 19.475,13.929c9.737,0 19.475,-4.642 19.475,-13.929l0,-237.259l120.796,233.546c5.57,10.213 13.921,17.642 24.583,17.642Z" style="fill-rule:nonzero;"/><path d="M3319.88,264.867c-9.287,0 -13.933,9.27 -13.933,17.616c0,9.738 5.108,18.546 13.933,18.546l75.229,0l0,289.313c0,9.287 9.738,13.929 19.475,13.929c9.738,0 19.475,-4.642 19.475,-13.929l0,-289.313l74.767,0c9.287,0 13.933,-9.275 13.933,-18.546c0,-8.808 -4.646,-17.616 -13.933,-17.616l-188.946,0Z" style="fill-rule:nonzero;"/><path d="M3638.41,571.825c-54.812,-0.029 -65.479,-37.617 -79.387,-37.617c-8.813,0 -17.171,12.067 -17.171,21.346c0,19.954 38.5,52.434 98.417,52.434c59.008,0 101.675,-31.088 101.675,-97.467c0,-126.346 -152.784,-85.471 -152.784,-163.971c0,-35.767 28.809,-48.308 63.188,-48.308c40.425,0.021 53.892,17.645 64.55,17.645c10.662,0 16.687,-13.912 16.687,-21.337c0,-20.871 -48.245,-30.612 -81.237,-30.612c-45.996,0 -102.138,18.087 -102.138,86.324c0,112.871 152.784,70.6 152.784,163.963c0,38.554 -25.554,57.6 -64.584,57.6Z" style="fill-rule:nonzero;"/><path d="M3792.62,590.342c0,9.287 9.737,13.929 19.475,13.929c9.737,0 19.475,-4.642 19.475,-13.929l0,-102.609l34.366,-43.183l101.7,152.758c3.717,5.571 8.825,7.892 14.396,7.892c11.146,0 22.754,-9.283 22.754,-19.5c0,-2.321 -0.929,-4.642 -2.32,-6.962l-110.525,-167.155l94.737,-118.396c2.321,-2.787 3.25,-6.037 3.25,-8.358c0,-9.75 -12.538,-19.962 -22.292,-19.962c-4.179,0 -8.825,1.854 -11.608,5.57l-124.458,161.58l0,-153.688c0,-9.287 -9.738,-13.462 -19.475,-13.462c-9.738,0 -19.475,4.175 -19.475,13.462l0,312.013Z" style="fill-rule:nonzero;"/><path d="M4036.85,604.271c6.967,0 12.542,-2.784 14.396,-8.821l20.433,-69.196l122.134,0l20.433,69.196c1.858,6.037 7.433,8.821 13.933,8.821c11.146,0 24.146,-7.429 24.146,-16.717c0,-0.929 -0.462,-1.858 -0.462,-3.25l-94.734,-308.758c-2.787,-8.825 -13.466,-13.467 -24.15,-13.467c-10.679,0 -21.362,4.179 -24.146,13.467l-94.737,308.758c-0.462,1.392 -0.929,2.321 -0.929,3.717c0,9.75 13.467,16.25 23.683,16.25Zm43.654,-110l52.475,-174.609l51.546,174.609l-104.021,0Zm91.95,-306.496c4.642,-2.321 6.5,-6.963 6.5,-11.142c0,-7.433 -5.108,-15.791 -13.004,-15.791c-1.392,0 -3.25,0.466 -4.641,0.929l-54.334,28.791c-4.179,2.321 -6.037,6.038 -6.037,10.217c0,7.429 6.037,15.792 13.929,15.792c1.858,0 3.254,-0.929 5.108,-1.858l52.479,-26.938Z" style="fill-rule:nonzero;"/><path d="M4549.1,505.879c0,45.046 -23.696,65.946 -62.725,65.946c-39.025,0 -62.254,-20.9 -62.254,-65.946l0,-227.546c0,-9.287 -9.737,-13.466 -19.475,-13.466c-9.737,0 -19.475,4.179 -19.475,13.466l0,227.546c0,73.825 44.058,101.179 101.204,101.179c57.146,0 101.675,-27.354 101.675,-101.179l0,-227.546c0,-9.287 -10.204,-13.466 -19.475,-13.466c-10.204,0 -19.475,4.179 -19.475,13.466l0,227.546Z" style="fill-rule:nonzero;"/><path d="M4836.99,604.271c9.737,0 19.475,-4.642 19.475,-13.929l0,-312.013c0,-9.287 -9.738,-13.462 -19.475,-13.462c-9.738,0 -19.475,4.175 -19.475,13.462l0,237.263l-115.684,-226.121c-8.362,-16.25 -15.787,-24.604 -29.7,-24.604c-10.2,0 -19.475,3.712 -19.475,13.462l0,312.013c0,9.287 9.738,13.929 19.475,13.929c9.738,0 19.48,-4.642 19.48,-13.929l0,-237.259l120.791,233.546c5.575,10.213 13.921,17.642 24.588,17.642Z" style="fill-rule:nonzero;"/><path d="M4922.47,590.342c0,9.287 9.737,13.929 19.475,13.929c9.737,0 19.475,-4.642 19.475,-13.929l0,-312.013c0,-9.287 -9.738,-13.462 -19.475,-13.462c-9.738,0 -19.475,4.175 -19.475,13.462l0,312.013Z" style="fill-rule:nonzero;"/><path d="M5066.37,300.1l143.958,0c8.358,0 13.467,-8.346 13.467,-18.079c0,-8.346 -4.179,-17.154 -13.467,-17.154l-165.292,0c-8.808,0 -17.616,4.633 -17.616,13.908l0,311.587c0,9.275 8.808,13.909 17.616,13.909l165.292,0c9.288,0 13.467,-8.809 13.467,-17.154c0,-9.734 -5.109,-18.079 -13.467,-18.079l-143.958,0l0,-118.475l72.441,0c9.288,0 13.467,-8.346 13.467,-15.763c0,-8.808 -5.108,-16.688 -13.467,-16.688l-72.441,0l0,-118.012Z" style="fill-rule:nonzero;"/><path d="M1803.19,1139.07c0,6.967 6.02,9.754 11.579,9.754c6.025,0 11.583,-2.787 11.583,-9.754l0,-149.534l73.838,0c6.962,0 9.75,-5.554 9.75,-10.187c0,-6.021 -3.717,-11.113 -9.75,-11.113l-73.838,0l0,-136.587l152.784,0c6.033,0 9.75,-5.558 9.75,-11.579c0,-5.096 -3.25,-10.654 -9.75,-10.654l-164.83,0c-5.558,0 -11.116,3.241 -11.116,10.187l0,319.467Z" style="fill-rule:nonzero;"/><path d="M2065.1,1138.61c0,6.967 6.021,10.217 11.579,10.217c6.025,0 11.584,-3.25 11.584,-10.217l0,-319.441c0,-6.967 -5.559,-9.75 -11.584,-9.75c-5.558,0 -11.579,2.783 -11.579,9.75l0,319.441Z" style="fill-rule:nonzero;"/><path d="M2141.73,809.417c-6.037,0 -9.754,5.558 -9.754,11.116c0,5.559 3.717,11.117 9.754,11.117l80.8,0l0,306.958c0,6.963 5.563,10.217 11.584,10.217c5.558,0 11.579,-3.254 11.579,-10.217l0,-306.958l79.875,0c6.966,0 9.75,-6.025 9.75,-11.579c0,-5.558 -3.25,-10.654 -9.75,-10.654l-183.838,0Z" style="fill-rule:nonzero;"/><path d="M2545.25,1143.25c1.858,5.571 6.967,8.354 13.004,8.354c5.571,0 11.609,-2.783 13,-8.354l98.45,-320.837c0,-0.93 0.467,-1.396 0.467,-2.788c0,-5.571 -6.967,-10.212 -13.467,-10.212c-4.179,0 -7.896,1.854 -9.287,6.962l-89.163,293.442l-89.629,-293.442c-1.854,-5.108 -5.571,-6.962 -10.217,-6.962c-6.037,0 -13,3.712 -13,10.212c0,0.929 0,1.858 0.463,2.788l99.379,320.837Z" style="fill-rule:nonzero;"/><path d="M2880.57,1054.15c0,51.546 -26.946,75.233 -71.084,75.233c-44.133,0 -70.612,-23.687 -70.612,-75.233l0,-234.979c0,-6.967 -5.559,-9.75 -11.583,-9.75c-5.559,0 -11.58,2.783 -11.58,9.75l0,234.979c0,71.05 40.817,97.462 93.775,97.462c52.963,0 94.242,-26.412 94.242,-97.462l0,-234.979c0,-6.967 -6.021,-9.75 -11.579,-9.75c-6.021,0 -11.579,2.783 -11.579,9.75l0,234.979Z" style="fill-rule:nonzero;"/><path d="M2955.8,809.417c-6.038,0 -9.754,5.558 -9.754,11.116c0,5.559 3.716,11.117 9.754,11.117l80.804,0l0,306.958c0,6.963 5.558,10.217 11.579,10.217c5.558,0 11.579,-3.254 11.579,-10.217l0,-306.958l79.875,0c6.967,0 9.755,-6.025 9.755,-11.579c0,-5.558 -3.251,-10.654 -9.755,-10.654l-183.837,0Z" style="fill-rule:nonzero;"/><path d="M3359.32,1143.25c1.858,5.571 6.966,8.354 13.004,8.354c5.571,0 11.608,-2.783 13.004,-8.354l98.446,-320.837c0,-0.93 0.466,-1.396 0.466,-2.788c0,-5.571 -6.966,-10.212 -13.466,-10.212c-4.179,0 -7.896,1.854 -9.288,6.962l-89.162,293.442l-89.625,-293.442c-1.858,-5.108 -5.575,-6.962 -10.217,-6.962c-6.037,0 -13.004,3.712 -13.004,10.212c0,0.929 0,1.858 0.463,2.788l99.379,320.837Z" style="fill-rule:nonzero;"/><path d="M3624.05,1139.1c0,5.096 4.171,9.729 11.117,9.729l84.52,0c51.567,0 91.454,-24.558 91.454,-94.704l0,-8.363c0,-47.85 -18.995,-68.758 -47.787,-80.804c23.675,-10.187 39.425,-37.596 39.425,-77.554c0,-65.017 -41.742,-77.983 -95.171,-77.983l-72.441,0c-5.559,0 -11.117,3.241 -11.117,10.187l0,319.492Zm23.162,-12.504l0,-150.984l70.617,0c43.667,0 70.15,18.584 70.15,69.684l0,7.9c0,51.1 -26.483,73.4 -70.15,73.4l-70.617,0Zm0,-294.942l60.859,0c41.816,0 71.55,9.754 71.55,57.608c0,49.25 -22.3,65.046 -69.688,65.046l-62.721,0l0,-122.654Z" style="fill-rule:nonzero;"/><path d="M3871.1,1138.61c0,6.963 6.021,10.217 11.579,10.217c6.021,0 11.583,-3.254 11.583,-10.217l0,-148.141l64.575,0l72.938,142.566c3.717,6.53 8.813,15.792 14.371,15.792c7.875,0 12.508,-5.558 12.508,-11.579c0,-1.85 -0.462,-3.704 -1.392,-5.554l-74.266,-143.538c42.275,-6.021 75.658,-30.141 75.658,-88.679c0,-68.292 -45.462,-90.058 -97.958,-90.058l-79.404,0c-6.488,0 -10.192,4.629 -10.192,9.725l0,319.466Zm89.596,-306.958c44.133,0 74.796,19.046 74.796,68.292c0,49.708 -30.663,69.22 -74.796,69.22l-66.434,0l0,-137.512l66.434,0Z" style="fill-rule:nonzero;"/><path d="M4287.16,1148.83c6.025,0 11.584,-3.25 11.584,-10.217l0,-319.441c0,-6.967 -5.559,-9.75 -11.584,-9.75c-5.558,0 -11.579,2.783 -11.579,9.75l0,274.404l-134.262,-265.121c-4.179,-7.892 -10.675,-19.033 -19.013,-19.033c-6.025,0 -11.583,2.321 -11.583,9.75l0,319.441c0,6.967 6.025,10.217 11.583,10.217c6.021,0 11.579,-3.25 11.579,-10.217l0,-274.404l136.588,267.442c4.179,7.891 9.741,17.179 16.687,17.179Z" style="fill-rule:nonzero;"/><path d="M4418.55,693.321c-2.321,-2.325 -5.109,-3.254 -6.962,-3.254c-4.646,0 -7.896,4.646 -7.896,8.825c0,2.787 1.391,5.575 4.641,8.825l46.442,44.579c2.783,2.787 6.5,4.646 9.75,4.646c3.25,0 6.038,-1.859 9.287,-4.646l46.905,-44.579c2.787,-3.25 4.642,-6.038 4.642,-8.825c0,-4.179 -3.251,-8.825 -7.892,-8.825c-2.321,0 -5.109,0.929 -7.429,3.254l-45.513,45.508l-45.975,-45.508Zm-23.217,138.329l153.246,0c6.038,0 9.754,-5.558 9.754,-11.579c0,-5.096 -2.787,-10.654 -9.754,-10.654l-165.291,0c-5.559,0 -11.117,3.241 -11.117,10.187l0,319.029c0,6.946 5.558,10.192 11.117,10.192l165.291,0c6.967,0 9.754,-5.558 9.754,-10.654c0,-6.021 -3.716,-11.579 -9.754,-11.579l-153.246,0l0,-137.055l73.838,0c6.966,0 9.75,-5.554 9.75,-10.187c0,-6.021 -3.712,-11.113 -9.75,-11.113l-73.838,0l0,-136.587Z" style="fill-rule:nonzero;"/><path d="M269.608,0.942c110.667,0 200.517,87.991 200.517,196.375c0,108.383 -89.85,196.375 -200.517,196.375c-110.666,0 -200.516,-87.992 -200.516,-196.375c0,-108.384 89.85,-196.375 200.516,-196.375Z" style="fill:#ff5a00;"/><path d="M201.542,831.275c-82.317,-25.729 -142.03,-101.563 -142.03,-191.004c0,-110.588 91.28,-200.367 203.709,-200.367c63.487,0 120.233,28.625 157.604,73.463l0.612,-0.855c158.684,183.242 -18.291,688.255 -402.283,897.155l-19.154,-19.159c148.838,-267.6 236.688,-474.558 201.542,-559.233Z" style="fill:#ff5a00;"/><path d="M753.504,232.9c110.667,0 200.517,87.992 200.517,196.375c0,108.383 -89.85,196.375 -200.517,196.375c-110.666,0 -200.517,-87.992 -200.517,-196.375c0,-108.383 89.851,-196.375 200.517,-196.375Z" style="fill:#ff5a00;"/><path d="M685.438,1063.28c-82.317,-25.729 -142.03,-101.562 -142.03,-191.004c0,-110.588 91.279,-200.367 203.713,-200.367c63.483,0 120.229,28.625 157.6,73.463l0.612,-0.855c158.684,183.242 -18.291,688.255 -402.283,897.155l-19.154,-19.159c148.837,-267.6 236.687,-474.558 201.542,-559.233Z" style="fill:#ff5a00;"/><path d="M1229.92,0.942c110.666,0 200.516,87.991 200.516,196.375c0,108.383 -89.85,196.375 -200.516,196.375c-110.667,0 -200.517,-87.992 -200.517,-196.375c0,-108.384 89.85,-196.375 200.517,-196.375Z" style="fill:#ff5a00;"/><path d="M1161.85,831.275c-82.317,-25.729 -142.029,-101.563 -142.029,-191.004c0,-110.588 91.279,-200.367 203.712,-200.367c63.488,0 120.229,28.625 157.6,73.463l0.613,-0.855c158.683,183.242 -18.292,688.255 -402.284,897.155l-19.154,-19.159c148.838,-267.6 236.688,-474.558 201.542,-559.233Z" style="fill:#ff5a00;"/></g></svg>