<?xml version="1.0" encoding="UTF-8" standalone="no"?>
<!DOCTYPE svg PUBLIC "-//W3C//DTD SVG 1.1//EN" "http://www.w3.org/Graphics/SVG/1.1/DTD/svg11.dtd">
<svg width="100%" height="100%" viewBox="0 0 110 110" version="1.1" xmlns="http://www.w3.org/2000/svg" xmlns:xlink="http://www.w3.org/1999/xlink" xml:space="preserve" xmlns:serif="http://www.serif.com/" style="fill-rule:evenodd;clip-rule:evenodd;stroke-linejoin:round;stroke-miterlimit:2;">
    <g>
        <g transform="matrix(0.0245805,0,0,0.0245805,8.48788,44.6234)">
            <g transform="matrix(486.992,0,0,486.992,92.888,1322.72)">
                <path d="M0.241,-0.07C0.123,-0.07 0.1,-0.151 0.07,-0.151C0.051,-0.151 0.033,-0.125 0.033,-0.105C0.033,-0.062 0.116,0.008 0.245,0.008C0.372,0.008 0.464,-0.059 0.464,-0.202C0.464,-0.474 0.135,-0.386 0.135,-0.555C0.135,-0.632 0.197,-0.659 0.271,-0.659C0.358,-0.659 0.387,-0.621 0.41,-0.621C0.433,-0.621 0.446,-0.651 0.446,-0.667C0.446,-0.712 0.342,-0.733 0.271,-0.733C0.172,-0.733 0.051,-0.694 0.051,-0.547C0.051,-0.304 0.38,-0.395 0.38,-0.194C0.38,-0.111 0.325,-0.07 0.241,-0.07Z" style="fill-rule:nonzero;"/>
            </g>
            <g transform="matrix(486.992,0,0,486.992,372.421,1322.72)">
                <path d="M0.043,-0.731C0.023,-0.731 0.013,-0.711 0.013,-0.693C0.013,-0.672 0.024,-0.653 0.043,-0.653L0.205,-0.653L0.205,-0.03C0.205,-0.01 0.226,0 0.247,0C0.268,0 0.289,-0.01 0.289,-0.03L0.289,-0.653L0.45,-0.653C0.47,-0.653 0.48,-0.673 0.48,-0.693C0.48,-0.712 0.47,-0.731 0.45,-0.731L0.043,-0.731Z" style="fill-rule:nonzero;"/>
            </g>
            <g transform="matrix(486.992,0,0,486.992,612.995,1322.72)">
                <path d="M0.421,-0.212C0.421,-0.115 0.37,-0.07 0.286,-0.07C0.202,-0.07 0.152,-0.115 0.152,-0.212L0.152,-0.702C0.152,-0.722 0.131,-0.731 0.11,-0.731C0.089,-0.731 0.068,-0.722 0.068,-0.702L0.068,-0.212C0.068,-0.053 0.163,0.006 0.286,0.006C0.409,0.006 0.505,-0.053 0.505,-0.212L0.505,-0.702C0.505,-0.722 0.483,-0.731 0.463,-0.731C0.441,-0.731 0.421,-0.722 0.421,-0.702L0.421,-0.212Z" style="fill-rule:nonzero;"/>
            </g>
            <g transform="matrix(486.992,0,0,486.992,892.041,1322.72)">
                <path d="M0.109,-0.731C0.086,-0.731 0.071,-0.717 0.071,-0.702L0.071,-0.029C0.071,-0.014 0.086,0 0.109,0L0.286,0C0.407,0 0.502,-0.059 0.502,-0.218L0.502,-0.513C0.502,-0.672 0.407,-0.731 0.286,-0.731L0.109,-0.731ZM0.286,-0.655C0.368,-0.655 0.418,-0.61 0.418,-0.513L0.418,-0.218C0.418,-0.121 0.368,-0.076 0.286,-0.076L0.155,-0.076L0.155,-0.655L0.286,-0.655Z" style="fill-rule:nonzero;"/>
            </g>
            <g transform="matrix(486.992,0,0,486.992,1167.68,1322.72)">
                <path d="M0.155,-0.655L0.465,-0.655C0.483,-0.655 0.494,-0.673 0.494,-0.694C0.494,-0.712 0.485,-0.731 0.465,-0.731L0.109,-0.731C0.09,-0.731 0.071,-0.721 0.071,-0.701L0.071,-0.03C0.071,-0.01 0.09,0 0.109,0L0.465,0C0.485,0 0.494,-0.019 0.494,-0.037C0.494,-0.058 0.483,-0.076 0.465,-0.076L0.155,-0.076L0.155,-0.331L0.311,-0.331C0.331,-0.331 0.34,-0.349 0.34,-0.365C0.34,-0.384 0.329,-0.401 0.311,-0.401L0.155,-0.401L0.155,-0.655Z" style="fill-rule:nonzero;"/>
            </g>
            <g transform="matrix(486.992,0,0,486.992,1417.99,1322.72)">
                <path d="M0.468,0C0.489,0 0.51,-0.01 0.51,-0.03L0.51,-0.702C0.51,-0.722 0.489,-0.731 0.468,-0.731C0.447,-0.731 0.426,-0.722 0.426,-0.702L0.426,-0.191L0.177,-0.678C0.159,-0.713 0.143,-0.731 0.113,-0.731C0.091,-0.731 0.071,-0.723 0.071,-0.702L0.071,-0.03C0.071,-0.01 0.092,0 0.113,0C0.134,0 0.155,-0.01 0.155,-0.03L0.155,-0.541L0.415,-0.038C0.427,-0.016 0.445,0 0.468,0Z" style="fill-rule:nonzero;"/>
            </g>
            <g transform="matrix(486.992,0,0,486.992,1700.94,1322.72)">
                <path d="M0.043,-0.731C0.023,-0.731 0.013,-0.711 0.013,-0.693C0.013,-0.672 0.024,-0.653 0.043,-0.653L0.205,-0.653L0.205,-0.03C0.205,-0.01 0.226,0 0.247,0C0.268,0 0.289,-0.01 0.289,-0.03L0.289,-0.653L0.45,-0.653C0.47,-0.653 0.48,-0.673 0.48,-0.693C0.48,-0.712 0.47,-0.731 0.45,-0.731L0.043,-0.731Z" style="fill-rule:nonzero;"/>
            </g>
            <g transform="matrix(486.992,0,0,486.992,1938.59,1322.72)">
                <path d="M0.241,-0.07C0.123,-0.07 0.1,-0.151 0.07,-0.151C0.051,-0.151 0.033,-0.125 0.033,-0.105C0.033,-0.062 0.116,0.008 0.245,0.008C0.372,0.008 0.464,-0.059 0.464,-0.202C0.464,-0.474 0.135,-0.386 0.135,-0.555C0.135,-0.632 0.197,-0.659 0.271,-0.659C0.358,-0.659 0.387,-0.621 0.41,-0.621C0.433,-0.621 0.446,-0.651 0.446,-0.667C0.446,-0.712 0.342,-0.733 0.271,-0.733C0.172,-0.733 0.051,-0.694 0.051,-0.547C0.051,-0.304 0.38,-0.395 0.38,-0.194C0.38,-0.111 0.325,-0.07 0.241,-0.07Z" style="fill-rule:nonzero;"/>
            </g>
            <g transform="matrix(486.992,0,0,486.992,2183.06,1322.72)">
                <path d="M0.071,-0.03C0.071,-0.01 0.092,0 0.113,0C0.134,0 0.155,-0.01 0.155,-0.03L0.155,-0.251L0.229,-0.344L0.448,-0.015C0.456,-0.003 0.467,0.002 0.479,0.002C0.503,0.002 0.528,-0.018 0.528,-0.04C0.528,-0.045 0.526,-0.05 0.523,-0.055L0.285,-0.415L0.489,-0.67C0.494,-0.676 0.496,-0.683 0.496,-0.688C0.496,-0.709 0.469,-0.731 0.448,-0.731C0.439,-0.731 0.429,-0.727 0.423,-0.719L0.155,-0.371L0.155,-0.702C0.155,-0.722 0.134,-0.731 0.113,-0.731C0.092,-0.731 0.071,-0.722 0.071,-0.702L0.071,-0.03Z" style="fill-rule:nonzero;"/>
            </g>
            <g transform="matrix(486.992,0,0,486.992,2440.68,1322.72)">
                <path d="M0.068,0C0.083,0 0.095,-0.006 0.099,-0.019L0.143,-0.168L0.406,-0.168L0.45,-0.019C0.454,-0.006 0.466,0 0.48,0C0.504,0 0.532,-0.016 0.532,-0.036C0.532,-0.038 0.531,-0.04 0.531,-0.043L0.327,-0.708C0.321,-0.727 0.298,-0.737 0.275,-0.737C0.252,-0.737 0.229,-0.728 0.223,-0.708L0.019,-0.043C0.018,-0.04 0.017,-0.038 0.017,-0.035C0.017,-0.014 0.046,0 0.068,0ZM0.162,-0.237L0.275,-0.613L0.386,-0.237L0.162,-0.237ZM0.36,-0.897C0.37,-0.902 0.374,-0.912 0.374,-0.921C0.374,-0.937 0.363,-0.955 0.346,-0.955C0.343,-0.955 0.339,-0.954 0.336,-0.953L0.219,-0.891C0.21,-0.886 0.206,-0.878 0.206,-0.869C0.206,-0.853 0.219,-0.835 0.236,-0.835C0.24,-0.835 0.243,-0.837 0.247,-0.839L0.36,-0.897Z" style="fill-rule:nonzero;"/>
            </g>
            <g transform="matrix(486.992,0,0,486.992,2805.92,1322.72)">
                <path d="M0.421,-0.212C0.421,-0.115 0.37,-0.07 0.286,-0.07C0.202,-0.07 0.152,-0.115 0.152,-0.212L0.152,-0.702C0.152,-0.722 0.131,-0.731 0.11,-0.731C0.089,-0.731 0.068,-0.722 0.068,-0.702L0.068,-0.212C0.068,-0.053 0.163,0.006 0.286,0.006C0.409,0.006 0.505,-0.053 0.505,-0.212L0.505,-0.702C0.505,-0.722 0.483,-0.731 0.463,-0.731C0.441,-0.731 0.421,-0.722 0.421,-0.702L0.421,-0.212Z" style="fill-rule:nonzero;"/>
            </g>
            <g transform="matrix(486.992,0,0,486.992,3084.97,1322.72)">
                <path d="M0.468,0C0.489,0 0.51,-0.01 0.51,-0.03L0.51,-0.702C0.51,-0.722 0.489,-0.731 0.468,-0.731C0.447,-0.731 0.426,-0.722 0.426,-0.702L0.426,-0.191L0.177,-0.678C0.159,-0.713 0.143,-0.731 0.113,-0.731C0.091,-0.731 0.071,-0.723 0.071,-0.702L0.071,-0.03C0.071,-0.01 0.092,0 0.113,0C0.134,0 0.155,-0.01 0.155,-0.03L0.155,-0.541L0.415,-0.038C0.427,-0.016 0.445,0 0.468,0Z" style="fill-rule:nonzero;"/>
            </g>
            <g transform="matrix(486.992,0,0,486.992,3367.91,1322.72)">
                <path d="M0.071,-0.03C0.071,-0.01 0.092,0 0.113,0C0.134,0 0.155,-0.01 0.155,-0.03L0.155,-0.702C0.155,-0.722 0.134,-0.731 0.113,-0.731C0.092,-0.731 0.071,-0.722 0.071,-0.702L0.071,-0.03Z" style="fill-rule:nonzero;"/>
            </g>
            <g transform="matrix(486.992,0,0,486.992,3477.97,1322.72)">
                <path d="M0.155,-0.655L0.465,-0.655C0.483,-0.655 0.494,-0.673 0.494,-0.694C0.494,-0.712 0.485,-0.731 0.465,-0.731L0.109,-0.731C0.09,-0.731 0.071,-0.721 0.071,-0.701L0.071,-0.03C0.071,-0.01 0.09,0 0.109,0L0.465,0C0.485,0 0.494,-0.019 0.494,-0.037C0.494,-0.058 0.483,-0.076 0.465,-0.076L0.155,-0.076L0.155,-0.331L0.311,-0.331C0.331,-0.331 0.34,-0.349 0.34,-0.365C0.34,-0.384 0.329,-0.401 0.311,-0.401L0.155,-0.401L0.155,-0.655Z" style="fill-rule:nonzero;"/>
            </g>
            <g transform="matrix(486.992,0,0,486.992,92.888,1893.78)">
                <path d="M0.079,-0.021C0.079,-0.006 0.092,0 0.104,0C0.117,0 0.129,-0.006 0.129,-0.021L0.129,-0.343L0.288,-0.343C0.303,-0.343 0.309,-0.355 0.309,-0.365C0.309,-0.378 0.301,-0.389 0.288,-0.389L0.129,-0.389L0.129,-0.683L0.458,-0.683C0.471,-0.683 0.479,-0.695 0.479,-0.708C0.479,-0.719 0.472,-0.731 0.458,-0.731L0.103,-0.731C0.091,-0.731 0.079,-0.724 0.079,-0.709L0.079,-0.021Z" style="fill-rule:nonzero;"/>
            </g>
            <g transform="matrix(486.992,0,0,486.992,367.551,1893.78)">
                <path d="M0.079,-0.022C0.079,-0.007 0.092,0 0.104,0C0.117,0 0.129,-0.007 0.129,-0.022L0.129,-0.71C0.129,-0.725 0.117,-0.731 0.104,-0.731C0.092,-0.731 0.079,-0.725 0.079,-0.71L0.079,-0.022Z" style="fill-rule:nonzero;"/>
            </g>
            <g transform="matrix(486.992,0,0,486.992,468.845,1893.78)">
                <path d="M0.036,-0.731C0.023,-0.731 0.015,-0.719 0.015,-0.707C0.015,-0.695 0.023,-0.683 0.036,-0.683L0.21,-0.683L0.21,-0.022C0.21,-0.007 0.222,0 0.235,0C0.247,0 0.26,-0.007 0.26,-0.022L0.26,-0.683L0.432,-0.683C0.447,-0.683 0.453,-0.696 0.453,-0.708C0.453,-0.72 0.446,-0.731 0.432,-0.731L0.036,-0.731Z" style="fill-rule:nonzero;"/>
            </g>
            <g transform="matrix(486.992,0,0,486.992,794.156,1893.78)">
                <path d="M0.237,-0.012C0.241,0 0.252,0.006 0.265,0.006C0.277,0.006 0.29,0 0.293,-0.012L0.505,-0.703C0.505,-0.705 0.506,-0.706 0.506,-0.709C0.506,-0.721 0.491,-0.731 0.477,-0.731C0.468,-0.731 0.46,-0.727 0.457,-0.716L0.265,-0.084L0.072,-0.716C0.068,-0.727 0.06,-0.731 0.05,-0.731C0.037,-0.731 0.022,-0.723 0.022,-0.709C0.022,-0.707 0.022,-0.705 0.023,-0.703L0.237,-0.012Z" style="fill-rule:nonzero;"/>
            </g>
            <g transform="matrix(486.992,0,0,486.992,1051.29,1893.78)">
                <path d="M0.431,-0.204C0.431,-0.093 0.373,-0.042 0.278,-0.042C0.183,-0.042 0.126,-0.093 0.126,-0.204L0.126,-0.71C0.126,-0.725 0.114,-0.731 0.101,-0.731C0.089,-0.731 0.076,-0.725 0.076,-0.71L0.076,-0.204C0.076,-0.051 0.164,0.006 0.278,0.006C0.392,0.006 0.481,-0.051 0.481,-0.204L0.481,-0.71C0.481,-0.725 0.468,-0.731 0.456,-0.731C0.443,-0.731 0.431,-0.725 0.431,-0.71L0.431,-0.204Z" style="fill-rule:nonzero;"/>
            </g>
            <g transform="matrix(486.992,0,0,486.992,1322.54,1893.78)">
                <path d="M0.036,-0.731C0.023,-0.731 0.015,-0.719 0.015,-0.707C0.015,-0.695 0.023,-0.683 0.036,-0.683L0.21,-0.683L0.21,-0.022C0.21,-0.007 0.222,0 0.235,0C0.247,0 0.26,-0.007 0.26,-0.022L0.26,-0.683L0.432,-0.683C0.447,-0.683 0.453,-0.696 0.453,-0.708C0.453,-0.72 0.446,-0.731 0.432,-0.731L0.036,-0.731Z" style="fill-rule:nonzero;"/>
            </g>
            <g transform="matrix(486.992,0,0,486.992,1647.85,1893.78)">
                <path d="M0.237,-0.012C0.241,0 0.252,0.006 0.265,0.006C0.277,0.006 0.29,0 0.293,-0.012L0.505,-0.703C0.505,-0.705 0.506,-0.706 0.506,-0.709C0.506,-0.721 0.491,-0.731 0.477,-0.731C0.468,-0.731 0.46,-0.727 0.457,-0.716L0.265,-0.084L0.072,-0.716C0.068,-0.727 0.06,-0.731 0.05,-0.731C0.037,-0.731 0.022,-0.723 0.022,-0.709C0.022,-0.707 0.022,-0.705 0.023,-0.703L0.237,-0.012Z" style="fill-rule:nonzero;"/>
            </g>
            <g transform="matrix(486.992,0,0,486.992,2002.38,1893.78)">
                <path d="M0.079,-0.021C0.079,-0.01 0.088,0 0.103,0L0.285,0C0.396,0 0.482,-0.053 0.482,-0.204L0.482,-0.222C0.482,-0.325 0.441,-0.37 0.379,-0.396C0.43,-0.418 0.464,-0.477 0.464,-0.563C0.464,-0.703 0.374,-0.731 0.259,-0.731L0.103,-0.731C0.091,-0.731 0.079,-0.724 0.079,-0.709L0.079,-0.021ZM0.129,-0.048L0.129,-0.373L0.281,-0.373C0.375,-0.373 0.432,-0.333 0.432,-0.223L0.432,-0.206C0.432,-0.096 0.375,-0.048 0.281,-0.048L0.129,-0.048ZM0.129,-0.683L0.26,-0.683C0.35,-0.683 0.414,-0.662 0.414,-0.559C0.414,-0.453 0.366,-0.419 0.264,-0.419L0.129,-0.419L0.129,-0.683Z" style="fill-rule:nonzero;"/>
            </g>
            <g transform="matrix(486.992,0,0,486.992,2261.46,1893.78)">
                <path d="M0.079,-0.022C0.079,-0.007 0.092,0 0.104,0C0.117,0 0.129,-0.007 0.129,-0.022L0.129,-0.341L0.268,-0.341L0.425,-0.034C0.433,-0.02 0.444,0 0.456,0C0.473,0 0.483,-0.012 0.483,-0.025C0.483,-0.029 0.482,-0.033 0.48,-0.037L0.32,-0.346C0.411,-0.359 0.483,-0.411 0.483,-0.537C0.483,-0.684 0.385,-0.731 0.272,-0.731L0.101,-0.731C0.087,-0.731 0.079,-0.721 0.079,-0.71L0.079,-0.022ZM0.272,-0.683C0.367,-0.683 0.433,-0.642 0.433,-0.536C0.433,-0.429 0.367,-0.387 0.272,-0.387L0.129,-0.387L0.129,-0.683L0.272,-0.683Z" style="fill-rule:nonzero;"/>
            </g>
            <g transform="matrix(486.992,0,0,486.992,2512.75,1893.78)">
                <path d="M0.459,0C0.472,0 0.484,-0.007 0.484,-0.022L0.484,-0.71C0.484,-0.725 0.472,-0.731 0.459,-0.731C0.447,-0.731 0.434,-0.725 0.434,-0.71L0.434,-0.119L0.145,-0.69C0.136,-0.707 0.122,-0.731 0.104,-0.731C0.091,-0.731 0.079,-0.726 0.079,-0.71L0.079,-0.022C0.079,-0.007 0.092,0 0.104,0C0.117,0 0.129,-0.007 0.129,-0.022L0.129,-0.613L0.423,-0.037C0.432,-0.02 0.444,0 0.459,0Z" style="fill-rule:nonzero;"/>
            </g>
            <g transform="matrix(486.992,0,0,486.992,2786.93,1893.78)">
                <path d="M0.179,-0.981C0.174,-0.986 0.168,-0.988 0.164,-0.988C0.154,-0.988 0.147,-0.978 0.147,-0.969C0.147,-0.963 0.15,-0.957 0.157,-0.95L0.257,-0.854C0.263,-0.848 0.271,-0.844 0.278,-0.844C0.285,-0.844 0.291,-0.848 0.298,-0.854L0.399,-0.95C0.405,-0.957 0.409,-0.963 0.409,-0.969C0.409,-0.978 0.402,-0.988 0.392,-0.988C0.387,-0.988 0.381,-0.986 0.376,-0.981L0.278,-0.883L0.179,-0.981ZM0.129,-0.683L0.459,-0.683C0.472,-0.683 0.48,-0.695 0.48,-0.708C0.48,-0.719 0.474,-0.731 0.459,-0.731L0.103,-0.731C0.091,-0.731 0.079,-0.724 0.079,-0.709L0.079,-0.022C0.079,-0.007 0.091,0 0.103,0L0.459,0C0.474,0 0.48,-0.012 0.48,-0.023C0.48,-0.036 0.472,-0.048 0.459,-0.048L0.129,-0.048L0.129,-0.343L0.288,-0.343C0.303,-0.343 0.309,-0.355 0.309,-0.365C0.309,-0.378 0.301,-0.389 0.288,-0.389L0.129,-0.389L0.129,-0.683Z" style="fill-rule:nonzero;"/>
            </g>
        </g>
        <g transform="matrix(1,0,0,1,6.16688,-1.57757)">
            <ellipse cx="37.387" cy="22.66" rx="5.597" ry="5.482" style="fill:rgb(255,90,0);"/>
            <path d="M35.487,40.357C33.19,39.638 31.523,37.522 31.523,35.025C31.523,31.938 34.071,29.432 37.209,29.432C38.981,29.432 40.565,30.231 41.608,31.483L41.625,31.459C46.055,36.574 41.115,50.671 30.396,56.502L29.862,55.967C34.016,48.497 36.468,42.72 35.487,40.357Z" style="fill:rgb(255,90,0);"/>
        </g>
        <g transform="matrix(1,0,0,1,6.16688,-1.57757)">
            <ellipse cx="50.895" cy="29.135" rx="5.597" ry="5.482" style="fill:rgb(255,90,0);"/>
            <path d="M48.995,46.832C46.697,46.114 45.03,43.997 45.03,41.5C45.03,38.413 47.578,35.907 50.716,35.907C52.489,35.907 54.073,36.706 55.116,37.958L55.133,37.934C59.562,43.049 54.622,57.146 43.904,62.977L43.369,62.442C47.524,54.972 49.976,49.195 48.995,46.832Z" style="fill:rgb(255,90,0);"/>
        </g>
        <g transform="matrix(1,0,0,1,6.16688,-1.57757)">
            <ellipse cx="64.193" cy="22.66" rx="5.597" ry="5.482" style="fill:rgb(255,90,0);"/>
            <path d="M62.293,40.357C59.995,39.638 58.329,37.522 58.329,35.025C58.329,31.938 60.877,29.432 64.015,29.432C65.787,29.432 67.371,30.231 68.414,31.483L68.431,31.459C72.861,36.574 67.921,50.671 57.202,56.502L56.667,55.967C60.822,48.497 63.274,42.72 62.293,40.357Z" style="fill:rgb(255,90,0);"/>
        </g>
    </g>
</svg>
