<?xml version="1.0" encoding="UTF-8" standalone="no"?><!DOCTYPE svg PUBLIC "-//W3C//DTD SVG 1.1//EN" "http://www.w3.org/Graphics/SVG/1.1/DTD/svg11.dtd"><svg width="100%" height="100%" viewBox="0 0 123 123" version="1.1" xmlns="http://www.w3.org/2000/svg" xmlns:xlink="http://www.w3.org/1999/xlink" xml:space="preserve" xmlns:serif="http://www.serif.com/" style="fill-rule:evenodd;clip-rule:evenodd;stroke-linejoin:round;stroke-miterlimit:1.41421;"><g><g><ellipse cx="31.035" cy="23.904" rx="12.717" ry="12.455" style="fill:#ff5a00;"/><path d="M26.718,64.115c-5.22,-1.632 -9.008,-6.442 -9.008,-12.115c0,-7.014 5.79,-12.707 12.92,-12.707c4.027,0 7.626,1.815 9.996,4.658l0.039,-0.053c10.064,11.621 -1.159,43.651 -25.514,56.9l-1.215,-1.214c9.44,-16.973 15.011,-30.099 12.782,-35.469Z" style="fill:#ff5a00;"/></g><g><ellipse cx="61.726" cy="38.617" rx="12.717" ry="12.455" style="fill:#ff5a00;"/><path d="M57.409,78.827c-5.221,-1.631 -9.008,-6.442 -9.008,-12.114c0,-7.014 5.79,-12.709 12.92,-12.709c4.027,0 7.625,1.817 9.996,4.66l0.039,-0.054c10.064,11.622 -1.161,43.652 -25.515,56.9l-1.214,-1.214c9.44,-16.972 15.011,-30.099 12.782,-35.469Z" style="fill:#ff5a00;"/></g><g><ellipse cx="91.942" cy="23.904" rx="12.717" ry="12.455" style="fill:#ff5a00;"/><path d="M87.625,64.115c-5.221,-1.632 -9.008,-6.442 -9.008,-12.115c0,-7.014 5.79,-12.707 12.92,-12.707c4.027,0 7.626,1.815 9.996,4.658l0.039,-0.053c10.064,11.621 -1.161,43.651 -25.515,56.9l-1.214,-1.214c9.44,-16.973 15.011,-30.099 12.782,-35.469Z" style="fill:#ff5a00;"/></g></g></svg>